<?xml version="1.0" encoding="UTF-8"?><svg id="Livello_1" xmlns="http://www.w3.org/2000/svg" viewBox="0 0 776.20605 1251.52381"><defs><style>.cls-1{fill:#0d47a1;}</style></defs><path class="cls-1" d="M361.93778,667.18809c-39.24518,0-78.49179-5.8141-109.01653-11.6282-52.32905,34.88604-77.0397,59.59668-77.0397,74.13193s14.53597,21.80359,72.6784,21.80359h172.9745c167.16184,0,311.0644,36.33884,311.0644,225.30284,0,158.43925-107.56372,274.72556-402.63864,274.72556C103.20315,1251.52381,0,1190.47432,0,1088.72326c0-75.58474,59.59596-103.20243,109.01725-116.28487l63.95725,34.88604c-11.6282,27.61769-14.53525,53.78114-14.53525,77.03898,0,68.31783,45.06071,129.36732,200.59148,129.36732,168.61465,0,257.28326-68.31783,257.28326-165.70759,0-81.39884-47.96848-111.92358-197.68658-111.92358H254.37478c-138.08918,0-183.1499-55.23682-183.1499-116.28631,0-66.86359,46.51424-109.01797,140.99623-175.88155-100.2961-34.88604-143.90328-107.56516-143.90328-216.58169,0-132.2758,90.12142-245.65363,295.07419-245.65363,52.32834,0,101.74962,10.17468,145.35681,33.43179C501.48193,106.1102,552.35602,0,667.18809,0c62.50373,0,109.01797,39.24661,109.01797,100.2961,0,43.60719-31.97899,84.30732-79.94603,84.30732-39.24733,0-66.86502-24.71064-75.58617-45.06071l34.88604-40.70014c-2.90705-23.25712-15.98949-36.33956-40.70014-36.33956-33.43179,0-68.31783,37.79309-68.31783,136.63566,0,13.08244,0,24.71064,1.45424,37.79309,55.23539,40.70014,91.57423,97.38905,91.57423,181.69565,0,156.98644-109.01797,248.56068-277.63261,248.56068Zm-4.35986-39.24589c59.59668,0,93.02847-33.43179,93.02847-202.04644,0-170.06745-30.52474-209.31406-91.57566-209.31406s-98.84186,36.33956-98.84186,210.76831c0,162.79911,33.43179,200.5922,97.38905,200.5922Z"/></svg>