<?xml version="1.0" encoding="UTF-8"?><svg id="Livello_1" xmlns="http://www.w3.org/2000/svg" viewBox="0 0 20 20"><defs><style>.cls-1{fill:#0d47a1;}</style></defs><path class="cls-1" d="m11.24115,10l4.44635-4.44635c.34277-.34277.34277-.89844,0-1.24121-.34271-.34271-.89844-.34271-1.24115,0l-4.44635,4.44635-4.44635-4.44635c-.34271-.34271-.89844-.34271-1.24115,0-.34277.34277-.34277.89844,0,1.24121l4.44635,4.44635-4.44635,4.44635c-.34277.34271-.34277.89844,0,1.24115.34271.34277.89844.34277,1.24115,0l4.44635-4.44635,4.44635,4.44635c.34271.34277.89844.34277,1.24115,0,.34277-.34271.34277-.89844,0-1.24115l-4.44635-4.44635Z"/></svg>